<svg id="Calque_1" data-name="Calque 1" xmlns="http://www.w3.org/2000/svg" viewBox="0 0 65.42 92.34"><defs><style>.cls-1{fill:#0c73b8;}</style></defs><g id="g3013"><path id="path2999" class="cls-1" d="M32.67,3.9h9.92V8.05H36.82v4.14h5.77v4.15H32.67Z" transform="translate(-17.28 -3.9)"/><path id="path3001" class="cls-1" d="M44.58,3.9H54.5V7.51H48.73v.72H54.5v8.29H44.58V12.74h5.77V12H44.58Z" transform="translate(-17.28 -3.9)"/><path id="path3003" class="cls-1" d="M56.48,3.9H66.4V7.51H60.63v.72H66.4v8.29H56.48V12.74h5.77V12H56.48Z" transform="translate(-17.28 -3.9)"/><path class="cls-1" d="M17.28,22.05l5.95,66.77L50,96.24l26.79-7.43,6-66.76ZM69,52.27l-.2,2.2L66.87,76l-.12,1.39L50,82.06h0L33.17,77.42,32,64.56h8.22l.58,6.53L50,73.55h0l9.13-2.47,1-10.62H31.66l-.73-8.19H60.76l.74-8.38H30.2l-.75-8.19h41Z" transform="translate(-17.28 -3.9)"/></g></svg>