<svg id="Calque_1" data-name="Calque 1" xmlns="http://www.w3.org/2000/svg" viewBox="0 0 63.61 89.78"><defs><style>.cls-1{fill:#e54f26;}</style></defs><path class="cls-1" d="M24.1,5.18h4v4h3.7v-4h4v12.1h-4V13.23h-3.7v4.05h-4V5.18Z" transform="translate(-18.18 -5.18)"/><path class="cls-1" d="M41.22,9.19H37.66v-4H48.83v4H45.27v8.09H41.22V9.19Z" transform="translate(-18.18 -5.18)"/><path class="cls-1" d="M50.6,5.18h4.22l2.6,4.25L60,5.18h4.22v12.1h-4v-6l-2.78,4.31h-.07l-2.79-4.31v6h-4Z" transform="translate(-18.18 -5.18)"/><path class="cls-1" d="M66.25,5.18h4v8.1H76v4H66.25Z" transform="translate(-18.18 -5.18)"/><path class="cls-1" d="M18.18,22.82,24,87.75,50,95,76,87.74l5.79-64.92ZM69.72,38.23l-.36,4-.16,1.79H38.72l.73,8.15h29l-.19,2.14-1.87,21-.12,1.35L50,81.18h0L33.64,76.66l-1.12-12.5h8l.56,6.35L50,72.9h0l8.88-2.4.93-10.33H32.17l-2-21.94L30,36.09H69.91Z" transform="translate(-18.18 -5.18)"/></svg>