<svg id="Calque_1" data-name="Calque 1" xmlns="http://www.w3.org/2000/svg" xmlns:xlink="http://www.w3.org/1999/xlink" viewBox="0 0 182.11 234.54"><defs><style>.cls-1{fill:#d825cb;}.cls-1,.cls-3,.cls-4{fill-rule:evenodd;}.cls-2{fill:#fff;}.cls-3{fill:#b111c3;}.cls-4{fill:url(#Dégradé_sans_nom_5);}</style><linearGradient id="Dégradé_sans_nom_5" x1="-6.73" y1="98.51" x2="-5.73" y2="98.51" gradientTransform="matrix(63.07, 62.05, 62.05, -63.07, -5595.37, 6615.46)" gradientUnits="userSpaceOnUse"><stop offset="0" stop-color="#212121" stop-opacity="0.62"/><stop offset="1" stop-color="#4d4d4d" stop-opacity="0"/></linearGradient></defs><path class="cls-1" d="M-40.78,90.66V-50.71A17.14,17.14,0,0,1-23.64-67.84H70.67L141.32,2.81V105H-40.77V90.66Z" transform="translate(40.78 67.85)"/><rect class="cls-2" x="49.15" y="81.48" width="18.89" height="68.61"/><path class="cls-2" d="M77.35,58.63c0-3.68-1-6.59-2.93-8.71a10.3,10.3,0,0,0-8-3.19,10.23,10.23,0,0,0-8,3.19c-1.94,2.12-2.9,5-2.9,8.71s1,6.63,2.88,8.74a10.26,10.26,0,0,0,8,3.17,10.34,10.34,0,0,0,8-3.19q2.92-3.18,2.93-8.72Zm14.81-49V82.25H76.79V74.57a22.85,22.85,0,0,1-7.17,7.14,17,17,0,0,1-8.86,2.37q-10,0-15.89-6.89T39,58.63q0-11.3,5.89-18.25a19.12,19.12,0,0,1,15.34-7A19.55,19.55,0,0,1,70,35.57a19.09,19.09,0,0,1,6.72,7.22c-.18-1.12-.32-2.4-.42-3.82s-.14-3-.14-4.62V9.61Z" transform="translate(40.78 67.85)"/><path class="cls-3" d="M141.32,105v47.8c0,7.68-7.67,13.91-17.13,13.91H-23.64c-9.47,0-17.14-6.23-17.14-13.91V105Z" transform="translate(40.78 67.85)"/><path class="cls-4" d="M70.63-67.84h0L141.33,2.82V61.91a1,1,0,0,1-1.26-.1C136.72,58.46,73.82-.12,73.82-4.85c0-20.81-3.15-62.5-3.19-63Z" transform="translate(40.78 67.85)"/><path class="cls-3" d="M70.63-67.84h0L141.33,2.82H88.47A17.84,17.84,0,0,1,75.86-2.4,17.85,17.85,0,0,1,70.63-15V-67.85Z" transform="translate(40.78 67.85)"/><rect class="cls-2" x="67.42" y="184.93" width="9.66" height="35.09"/><path class="cls-2" d="M44,152.18V117.09h7.31a59.75,59.75,0,0,1,11.57.77,16.58,16.58,0,0,1,5.95,2.56,15,15,0,0,1,5.06,6,20.79,20.79,0,0,1,0,16.56,15,15,0,0,1-5.06,5.95,16.26,16.26,0,0,1-5.8,2.53,49.1,49.1,0,0,1-10.11.76Zm9.47-7.87h1.6q5.64,0,8.23-2.31t2.58-7.34q0-5-2.58-7.39t-8.23-2.34h-1.6Z" transform="translate(40.78 67.85)"/></svg>