<svg id="Calque_1" data-name="Calque 1" xmlns="http://www.w3.org/2000/svg" viewBox="0 0 65.08 91.61"><defs><style>.cls-1{fill:#e7a020;}</style></defs><path class="cls-1" d="M50,22.22H17.45l6.1,66.16L50,95.87l26.43-7.49,6.11-66.16ZM66.64,77.11,50,81.84,33.33,77.11,32.16,64.44h8.22l.55,6.34L50,73.39l8.92-2.57.92-10.48h-28l-.05.16,2.29-24.77H67l1.81,13h-8.3L60.23,44H40.77l-.38,8.29H68.93Z" transform="translate(-17.45 -4.26)"/><polygon class="cls-1" points="26.21 8.2 20.42 8.2 20.42 12.35 26.21 12.35 29.31 12.35 30.36 12.35 30.36 0 26.21 0 26.21 8.2"/><path class="cls-1" d="M62.11,4.33H52V8.65c1.35,1.35,2.06,2,4,3.95H52v3.94h10.1v-4l-4-3.95h4Z" transform="translate(-17.45 -4.26)"/></svg>