<svg id="Calque_1" data-name="Calque 1" xmlns="http://www.w3.org/2000/svg" xmlns:xlink="http://www.w3.org/1999/xlink" viewBox="0 0 182.11 234.54"><defs><style>.cls-1{fill:#2243c0;}.cls-1,.cls-2,.cls-3{fill-rule:evenodd;}.cls-2{fill:#2322a9;}.cls-3{fill:url(#Dégradé_sans_nom_8);}.cls-4{fill:#fff;}</style><linearGradient id="Dégradé_sans_nom_8" x1="-1.5" y1="99.62" x2="-0.5" y2="99.62" gradientTransform="matrix(63.07, 62.05, 62.05, -63.07, -5994.06, 6361.71)" gradientUnits="userSpaceOnUse"><stop offset="0" stop-color="#212121" stop-opacity="0.62"/><stop offset="1" stop-color="#4d4d4d" stop-opacity="0"/></linearGradient></defs><path class="cls-1" d="M-41.06,91.3V-50.06A17.13,17.13,0,0,1-23.93-67.2H70.38L141,3.46V105.63H-41.06V91.3Z" transform="translate(41.07 67.2)"/><path class="cls-2" d="M141,105.63v47.8c0,7.68-7.67,13.91-17.13,13.91H-23.93c-9.46,0-17.14-6.23-17.14-13.91v-47.8Z" transform="translate(41.07 67.2)"/><path class="cls-3" d="M70.35-67.2h0L141,3.46V62.55a1,1,0,0,1-1.26-.1C136.44,59.11,73.53.53,73.53-4.2c0-20.82-3.15-62.5-3.18-63Z" transform="translate(41.07 67.2)"/><path class="cls-2" d="M70.35-67.2h0L141,3.46H88.19A17.88,17.88,0,0,1,75.57-1.76a17.86,17.86,0,0,1-5.22-12.62V-67.2Z" transform="translate(41.07 67.2)"/><path class="cls-4" d="M14.07,152.82h-9V117.73h10a39.53,39.53,0,0,1,8.25.58,9.81,9.81,0,0,1,4,2,10.39,10.39,0,0,1,3,4,13.75,13.75,0,0,1,1,5.35,14.14,14.14,0,0,1-1,5.53,9.21,9.21,0,0,1-6.47,5.57,29.19,29.19,0,0,1-6.45.5H14.07v11.58Zm0-19.29H15.9c2.3,0,3.9-.32,4.81-.95a3.65,3.65,0,0,0,1.37-3.22,3.56,3.56,0,0,0-1.34-3.14c-.9-.63-2.48-.94-4.75-.94H14.07Z" transform="translate(41.07 67.2)"/><path class="cls-4" d="M37.78,141.47a17.24,17.24,0,0,0,4.2,3.62,8.22,8.22,0,0,0,4.14,1.2,4.74,4.74,0,0,0,3.15-1,3.27,3.27,0,0,0,1.23-2.61,3.42,3.42,0,0,0-1.06-2.7c-.71-.63-2.33-1.28-4.83-1.95q-5.16-1.4-7.29-3.62a8.48,8.48,0,0,1-2.13-6.11,10.76,10.76,0,0,1,3.37-8.21,12.18,12.18,0,0,1,8.73-3.18,19,19,0,0,1,5.5.78A18,18,0,0,1,57.72,120l-3,6.88a12.79,12.79,0,0,0-3.34-2.1,8.91,8.91,0,0,0-3.39-.7,4.51,4.51,0,0,0-2.81.82,2.71,2.71,0,0,0-.13,4.23,10,10,0,0,0,3.66,1.51l.43.12c3.89,1.06,6.46,2.22,7.69,3.48a8.57,8.57,0,0,1,1.89,3.1,12.79,12.79,0,0,1-3,13q-3.66,3.39-9.77,3.39a17.32,17.32,0,0,1-6.68-1.24,19.1,19.1,0,0,1-5.79-3.91l4.32-7.12Z" transform="translate(41.07 67.2)"/><path class="cls-4" d="M64.74,152.82V117.73H72a59.75,59.75,0,0,1,11.57.77,16.88,16.88,0,0,1,6,2.56,15,15,0,0,1,5.05,6,20.68,20.68,0,0,1,0,16.56,15,15,0,0,1-5.05,6,16.58,16.58,0,0,1-5.8,2.52,48.57,48.57,0,0,1-10.12.76ZM74.2,145h1.61q5.63,0,8.22-2.31c1.72-1.55,2.59-4,2.59-7.35s-.87-5.81-2.59-7.38-4.47-2.35-8.22-2.35H74.2Z" transform="translate(41.07 67.2)"/><path class="cls-4" d="M19,83.35H1.55V15H21q11.45,0,16.06,1.12a18.87,18.87,0,0,1,7.85,3.83,20.18,20.18,0,0,1,5.77,7.82,26.61,26.61,0,0,1,2,10.44,27.49,27.49,0,0,1-2,10.77,18.76,18.76,0,0,1-5.79,7.64,18.32,18.32,0,0,1-6.82,3.22q-3.91,1-12.56,1H19V83.35Zm0-37.6h3.55q6.72,0,9.39-1.85t2.66-6.28q0-4.29-2.62-6.12t-9.25-1.82H19Z" transform="translate(41.07 67.2)"/><path class="cls-4" d="M56.62,79.42l3.46-12.7a26.94,26.94,0,0,0,8,4.88,23.94,23.94,0,0,0,8.8,1.71,9.16,9.16,0,0,0,4.76-1,3.23,3.23,0,0,0,1.64-2.92q0-3.12-6.59-4.67c-1.43-.34-2.58-.64-3.45-.89q-7.47-2.05-10.86-5.39A11.65,11.65,0,0,1,59,49.76a13.32,13.32,0,0,1,5.16-11q5.16-4.11,14-4.11a42.23,42.23,0,0,1,9.23,1A50.12,50.12,0,0,1,97,39L93.52,50.42A28.26,28.26,0,0,0,86.79,47,20.86,20.86,0,0,0,80,45.84a8.32,8.32,0,0,0-4.29.89,2.83,2.83,0,0,0-1.45,2.57q0,2.52,6.54,4.25c1,.28,1.74.48,2.24.61Q91.65,56.64,95,60a12.15,12.15,0,0,1,3.38,9,14.26,14.26,0,0,1-5.56,11.7q-5.55,4.46-14.71,4.46a44.55,44.55,0,0,1-11.54-1.42,36.68,36.68,0,0,1-10-4.33Z" transform="translate(41.07 67.2)"/></svg>