<svg id="Calque_1" data-name="Calque 1" xmlns="http://www.w3.org/2000/svg" viewBox="0 0 69.67 69.31"><defs><style>.cls-1{fill:#4381b1;}.cls-2{fill:#e09e19;}</style></defs><g id="layer1"><g id="g1894"><path id="path8615" class="cls-1" d="M49.74,15.41c-17.69,0-16.59,7.67-16.59,7.67l0,8H50.05v2.39H26.47S15.15,32.13,15.15,50,25,67.19,25,67.19h5.9V58.91S30.61,49,40.65,49H57.39s9.4.15,9.4-9.09V24.66S68.22,15.41,49.74,15.41Zm-9.31,5.35a3,3,0,1,1-3,3A3,3,0,0,1,40.43,20.76Z" transform="translate(-15.15 -15.41)"/><path id="path8620" class="cls-2" d="M50.24,84.72c17.69,0,16.58-7.67,16.58-7.67l0-7.94H49.92V66.72H73.51S84.83,68,84.83,50.16,75,32.94,75,32.94h-5.9v8.29s.32,9.87-9.72,9.87H42.59s-9.41-.15-9.41,9.09V75.48S31.76,84.72,50.24,84.72Zm9.31-5.34a3,3,0,1,1,3-3A3,3,0,0,1,59.55,79.38Z" transform="translate(-15.15 -15.41)"/></g></g></svg>